<svg width="16" height="17" viewBox="0 0 16 17" fill="none" xmlns="http://www.w3.org/2000/svg">
<path d="M16 1.41667V15.5833C15.9996 15.9589 15.8462 16.319 15.5735 16.5846C15.3008 16.8502 14.9311 16.9996 14.5455 17H11.2727C10.8871 16.9996 10.5174 16.8502 10.2447 16.5846C9.97201 16.319 9.81862 15.9589 9.81818 15.5833V1.41667C9.81862 1.04108 9.97201 0.68099 10.2447 0.415407C10.5174 0.149823 10.8871 0.000429549 11.2727 0H14.5455C14.9311 0.000429549 15.3008 0.149823 15.5735 0.415407C15.8462 0.68099 15.9996 1.04108 16 1.41667ZM4.72727 0H1.45455C1.06891 0.000429549 0.699198 0.149823 0.426514 0.415407C0.153829 0.68099 0.000441035 1.04108 0 1.41667V15.5833C0.000441035 15.9589 0.153829 16.319 0.426514 16.5846C0.699198 16.8502 1.06891 16.9996 1.45455 17H4.72727C5.11291 16.9996 5.48262 16.8502 5.7553 16.5846C6.02799 16.319 6.18138 15.9589 6.18182 15.5833V1.41667C6.18138 1.04108 6.02799 0.68099 5.7553 0.415407C5.48262 0.149823 5.11291 0.000429549 4.72727 0Z" fill="black" fill-opacity="1"/>
</svg>
