<svg width="28" height="24" viewBox="0 0 28 24" fill="none" xmlns="http://www.w3.org/2000/svg">
<path fill-opacity=".5" d="M26.3323 9.51932L3.73994 0.205061C3.2762 0.0139132 2.76804 -0.045174 2.2724 0.0344185C1.77676 0.114011 1.31321 0.329139 0.933688 0.655703C0.554167 0.982266 0.273662 1.40737 0.123598 1.88338C-0.0264666 2.35939 -0.0401629 2.86752 0.0840433 3.35083L2.0951 11.1854H11.9404C12.158 11.1854 12.3667 11.2712 12.5206 11.4241C12.6744 11.5769 12.7608 11.7843 12.7608 12.0004C12.7608 12.2166 12.6744 12.4239 12.5206 12.5768C12.3667 12.7296 12.158 12.8155 11.9404 12.8155H2.0951L0.0842046 20.6499C-0.0398026 21.1331 -0.0259667 21.6411 0.124163 22.117C0.274293 22.5929 0.55479 23.0179 0.934247 23.3444C1.3137 23.6708 1.77714 23.8859 2.27267 23.9655C2.76819 24.0452 3.27625 23.9862 3.73994 23.7952L26.3323 14.4817C26.826 14.2782 27.2479 13.9339 27.5448 13.4923C27.8416 13.0507 28 12.5316 28 12.0005C28 11.4695 27.8416 10.9504 27.5448 10.5087C27.2479 10.0671 26.826 9.72281 26.3323 9.51932Z" fill="white"/>
</svg>